<?xml version="1.0" standalone="no"?>
<!DOCTYPE svg PUBLIC "-//W3C//DTD SVG 20010904//EN"
 "http://www.w3.org/TR/2001/REC-SVG-20010904/DTD/svg10.dtd">
<svg version="1.0" xmlns="http://www.w3.org/2000/svg"
 width="1000.000000pt" height="1000.000000pt" viewBox="0 0 1000.000000 1000.000000"
 preserveAspectRatio="xMidYMid meet">
<metadata>
Created by potrace 1.14, written by Peter Selinger 2001-2017
</metadata>
<g transform="translate(0.000000,1000.000000) scale(0.100000,-0.100000)"
fill="#000000" stroke="none">
<path d="M2866 9969 c-141 -45 -387 -99 -510 -111 -108 -11 -250 -3 -298 17
-15 6 -18 2 -18 -26 0 -67 98 -232 206 -349 31 -33 53 -64 48 -69 -5 -4 -29
-23 -54 -41 -287 -216 -652 -583 -965 -969 -55 -68 -126 -155 -158 -192 -116
-137 -257 -334 -278 -389 -11 -30 -31 -133 -45 -229 -56 -406 -82 -780 -91
-1326 l-6 -410 -52 -33 c-105 -68 -179 -199 -212 -377 -21 -108 -13 -491 11
-615 45 -225 108 -400 221 -617 154 -295 306 -463 576 -633 l92 -58 32 -84
c77 -195 236 -483 389 -702 122 -173 238 -309 415 -486 448 -447 977 -766
1593 -962 76 -23 138 -46 138 -49 0 -4 -18 -9 -41 -13 -52 -8 -108 -36 -189
-96 -36 -26 -83 -57 -105 -68 -57 -28 -266 -94 -430 -136 -938 -237 -977 -248
-1380 -381 -291 -97 -433 -155 -600 -248 -123 -67 -298 -183 -384 -254 l-72
-58 54 -3 c54 -3 57 -2 178 81 300 204 466 290 746 388 274 96 386 129 913
265 223 57 473 122 555 143 146 39 368 106 386 117 14 9 11 1 -36 -81 -24 -43
-65 -126 -91 -184 -48 -111 -208 -579 -220 -643 l-6 -38 56 0 c31 0 134 12
229 26 95 15 215 27 267 28 l95 1 105 -53 c68 -34 117 -52 140 -52 l35 1 -35
29 c-44 37 -129 82 -200 106 -77 26 -257 23 -465 -9 -88 -14 -162 -23 -164
-21 -6 6 76 248 143 419 37 94 101 238 142 322 71 143 80 157 155 227 84 79
194 144 225 132 15 -6 16 -25 11 -199 -7 -263 -12 -272 -67 -116 -24 68 -48
130 -53 136 -17 23 -24 4 -17 -49 17 -119 88 -323 156 -445 46 -83 163 -239
258 -343 43 -47 93 -109 112 -137 31 -47 39 -53 70 -53 18 0 34 3 34 6 0 19
-100 154 -169 230 -104 113 -216 259 -265 348 -38 67 -38 69 -27 125 20 106
34 296 29 413 -4 87 -2 118 7 118 6 0 34 -7 61 -15 71 -21 285 -62 417 -80
482 -64 1023 -40 1487 66 47 11 94 22 104 25 17 6 18 2 13 -40 -8 -54 9 -380
22 -452 9 -46 8 -52 -23 -99 -40 -61 -180 -221 -199 -228 -8 -3 -35 -33 -60
-67 -51 -67 -78 -141 -101 -273 l-13 -78 35 3 36 3 17 93 c27 142 56 192 197
342 68 72 143 161 166 198 123 191 232 483 196 527 -7 9 -17 12 -21 8 -4 -4
-24 -51 -44 -103 -19 -52 -57 -140 -83 -194 l-47 -99 -8 39 c-9 48 -17 379
-10 416 7 37 29 41 114 23 101 -23 231 -87 273 -136 80 -94 200 -367 267 -609
33 -121 58 -191 127 -359 4 -11 -2 -13 -30 -8 -29 4 -59 29 -164 136 -105 105
-141 136 -194 160 -104 49 -168 38 -243 -42 -61 -66 -85 -141 -94 -289 l-6
-108 35 0 35 0 6 118 c3 64 13 140 22 169 28 93 99 128 200 98 47 -13 69 -30
167 -127 145 -143 180 -168 230 -168 52 0 102 26 93 48 -45 112 -101 273 -131
373 -52 176 -111 344 -146 413 -16 32 -27 60 -25 62 2 2 48 -10 103 -26 131
-41 473 -132 874 -235 494 -126 642 -169 894 -257 300 -105 405 -158 719 -365
156 -103 158 -104 212 -101 l54 3 -65 53 c-139 113 -374 255 -579 350 -113 52
-583 212 -825 282 -139 39 -550 145 -860 220 -184 45 -310 83 -475 145 -88 33
-106 44 -147 90 -58 64 -132 113 -215 141 l-63 21 83 28 c115 38 319 126 468
201 753 376 1344 985 1668 1716 33 74 72 172 88 218 25 75 33 86 78 120 68 50
255 246 336 350 98 126 194 271 238 358 95 190 184 468 210 655 23 162 8 469
-29 607 -18 70 -78 176 -130 231 l-47 50 -6 552 c-8 703 -22 905 -87 1237 -33
167 -49 213 -101 290 -112 168 -586 647 -984 995 -380 333 -681 552 -1034 753
-125 71 -462 237 -602 296 l-86 36 -1699 -1 -1699 -1 -89 -29z m2713 -1435
c287 -64 632 -200 916 -362 414 -236 885 -628 1038 -863 130 -201 262 -455
412 -799 61 -139 195 -459 195 -465 0 -10 -149 31 -170 47 -37 27 -195 66
-320 78 -58 6 -283 14 -500 17 -652 9 -1036 -23 -1341 -111 -139 -40 -197 -65
-223 -96 -27 -33 -54 -136 -63 -242 -3 -36 -9 -72 -14 -80 -7 -10 -76 -13
-341 -15 -183 -1 -407 -6 -498 -12 -91 -6 -184 -11 -207 -11 l-42 0 -6 48
c-10 73 -36 194 -50 228 -19 47 -73 103 -124 128 -239 120 -781 180 -1397 156
-453 -18 -856 -76 -923 -133 -14 -13 -151 -41 -158 -33 -6 6 59 154 111 251
30 55 98 172 151 260 54 88 123 203 155 255 232 385 494 777 642 961 66 82
122 148 124 146 6 -6 -55 -216 -77 -264 -25 -56 -15 -71 32 -50 19 9 88 37
154 63 66 25 298 124 515 219 637 279 918 391 1390 555 140 49 293 102 340
119 104 37 132 38 279 5z m-2219 -2554 c325 -19 702 -62 767 -87 25 -10 51
-77 78 -204 39 -182 36 -318 -16 -574 -26 -131 -52 -182 -110 -221 -109 -73
-278 -89 -1242 -118 -283 -9 -456 26 -580 118 -91 66 -137 341 -138 816 0 184
2 216 16 226 15 11 185 29 420 44 181 11 619 11 805 0z m4269 -34 c171 -20
171 -20 207 -170 25 -102 27 -127 28 -321 0 -178 -3 -226 -21 -312 -34 -160
-62 -196 -189 -242 -184 -67 -424 -103 -805 -121 -298 -14 -541 3 -744 51
-116 28 -132 37 -220 120 -88 84 -102 116 -116 279 -19 205 16 604 57 649 8 8
81 22 206 37 167 21 257 28 558 48 30 2 246 2 480 1 311 -2 461 -8 559 -19z
m1517 -118 c100 -49 192 -177 224 -312 69 -291 42 -589 -86 -958 -60 -171
-112 -275 -223 -440 -86 -127 -288 -356 -360 -408 l-29 -20 23 93 c24 93 54
260 75 417 18 132 24 469 11 610 -24 261 -66 480 -127 673 l-35 107 48 56 c58
68 114 110 213 159 73 37 162 57 205 48 11 -3 38 -14 61 -25z m-8199 -13 c65
-19 151 -77 235 -157 l66 -63 -38 -190 c-54 -267 -71 -410 -77 -642 -10 -351
38 -714 132 -1011 13 -42 23 -77 21 -79 -7 -7 -154 90 -206 136 -178 156 -411
533 -508 821 -58 173 -75 303 -76 570 0 190 3 224 21 291 39 139 125 274 193
302 104 42 154 47 237 22z m896 -147 c-15 -316 69 -700 194 -890 81 -122 299
-175 820 -198 374 -16 740 7 1038 65 184 36 270 67 327 116 108 92 187 305
204 554 l7 90 301 0 c165 0 405 4 532 9 l231 8 12 -112 c14 -131 50 -253 97
-332 104 -171 353 -303 676 -358 330 -56 785 -48 1143 20 321 61 535 180 575
320 55 189 95 502 87 689 l-5 133 41 -6 c23 -4 61 -10 84 -13 31 -4 42 -11 46
-27 3 -11 57 -199 121 -416 126 -428 188 -657 261 -959 54 -225 54 -224 -1
-473 -251 -1143 -1116 -2075 -2304 -2482 -464 -160 -891 -225 -1399 -213 -259
6 -428 22 -651 63 -929 171 -1773 667 -2338 1374 -179 224 -362 532 -467 785
-21 50 -44 105 -52 123 -51 117 -138 433 -167 603 l-15 86 44 190 c48 212 115
470 180 703 47 165 190 618 198 626 6 6 134 32 164 33 21 1 21 -1 16 -111z"/>
<path d="M3455 5765 c-50 -27 -75 -57 -110 -130 -45 -95 -59 -169 -58 -305 2
-211 70 -382 174 -436 36 -18 112 -18 148 1 60 30 120 129 146 237 19 82 19
258 0 356 -20 99 -78 216 -127 255 -47 37 -126 47 -173 22z"/>
<path d="M6433 5761 c-111 -51 -182 -252 -170 -480 9 -172 51 -293 128 -370
129 -129 284 -28 342 223 18 78 14 288 -7 366 -44 168 -136 281 -228 280 -13
0 -42 -9 -65 -19z"/>
<path d="M4324 4291 c-57 -35 -104 -125 -104 -200 0 -45 38 -108 84 -139 18
-12 64 -29 102 -37 111 -24 207 -19 401 20 96 19 193 35 214 35 22 0 85 -11
142 -24 194 -46 411 -60 515 -34 59 15 126 80 142 137 19 72 -11 165 -70 215
-35 29 -43 31 -71 16 -21 -12 -27 -74 -8 -86 6 -3 20 -27 31 -51 17 -38 18
-49 7 -74 -17 -42 -52 -57 -150 -64 -86 -7 -147 0 -394 45 -66 12 -129 22
-140 22 -31 1 -156 -21 -285 -49 -144 -32 -280 -34 -337 -6 -24 11 -45 31 -56
54 -15 32 -16 40 -3 83 8 26 26 62 40 81 31 40 32 51 7 65 -26 14 -31 13 -67
-9z"/>
</g>
</svg>
